<?xml version="1.0" encoding="UTF-8" standalone="no"?>
<!-- Created with Inkscape (http://www.inkscape.org/) -->

<svg
   xmlns:dc="http://purl.org/dc/elements/1.1/"
   xmlns:cc="http://creativecommons.org/ns#"
   xmlns:rdf="http://www.w3.org/1999/02/22-rdf-syntax-ns#"
   xmlns:svg="http://www.w3.org/2000/svg"
   xmlns="http://www.w3.org/2000/svg"
   xmlns:sodipodi="http://sodipodi.sourceforge.net/DTD/sodipodi-0.dtd"
   xmlns:inkscape="http://www.inkscape.org/namespaces/inkscape"
   width="210mm"
   height="297mm"
   viewBox="0 0 210 297"
   version="1.1"
   id="svg8"
   inkscape:version="0.92.2 2405546, 2018-03-11"
   sodipodi:docname="growlogo.svg"
   inkscape:export-filename="/home/roderick/Documents/growsouthcity.github.io-src/content/growlogo.png"
   inkscape:export-xdpi="96"
   inkscape:export-ydpi="96">
  <defs
     id="defs2" />
  <sodipodi:namedview
     id="base"
     pagecolor="#ffffff"
     bordercolor="#666666"
     borderopacity="1.0"
     inkscape:pageopacity="0.0"
     inkscape:pageshadow="2"
     inkscape:zoom="1.5113056"
     inkscape:cx="347.7454"
     inkscape:cy="788.48069"
     inkscape:document-units="mm"
     inkscape:current-layer="layer1"
     showgrid="false"
     showguides="true"
     inkscape:guide-bbox="true"
     inkscape:window-width="960"
     inkscape:window-height="481"
     inkscape:window-x="0"
     inkscape:window-y="0"
     inkscape:window-maximized="1" />
  <metadata
     id="metadata5">
    <rdf:RDF>
      <cc:Work
         rdf:about="">
        <dc:format>image/svg+xml</dc:format>
        <dc:type
           rdf:resource="http://purl.org/dc/dcmitype/StillImage" />
        <dc:title></dc:title>
      </cc:Work>
    </rdf:RDF>
  </metadata>
  <g
     inkscape:label="Layer 1"
     inkscape:groupmode="layer"
     id="layer1">
    <path
       style="fill:#9d7a23;fill-opacity:1;stroke:none;stroke-width:0.26501903px;stroke-linecap:butt;stroke-linejoin:miter;stroke-opacity:1"
       d="m 83.296012,106.74183 c 0,0 1.899891,-5.49097 4.13555,-8.362321 2.235659,-2.871353 6.087476,-6.829137 9.64986,-8.275528 3.562388,-1.446391 7.055798,-2.865576 10.391908,-2.432788 3.33611,0.432788 6.89468,3.899171 6.89468,3.899171 V 107.71992 H 83.331945 Z"
       id="path4810"
       inkscape:connector-curvature="0"
       sodipodi:nodetypes="czzzcccc" />
    <g
       id="g4750"
       transform="matrix(0.65489716,-0.11547603,0.11547603,0.65489716,24.031287,40.183171)">
      <path
         sodipodi:nodetypes="ccccccccccccccccc"
         inkscape:connector-curvature="0"
         id="path4524"
         d="m 74.941115,83.823768 c 0.06295,1.235735 0.181432,1.664958 -0.311035,3.590974 1.068181,1.122979 1.317495,1.651568 1.470634,3.701359 1.531313,0.819507 2.145387,1.525876 2.983075,3.383464 1.951259,0.663059 2.768778,1.180375 4.226286,2.637288 2.125811,-0.05144 3.01959,0.347963 4.716379,1.349833 1.703586,-0.417094 2.797666,-0.477173 4.3196,-0.127539 1.096113,-0.839459 2.017494,-1.499439 3.452966,-1.506154 0.741433,-1.315394 1.217463,-1.825445 2.116477,-2.786012 0.08005,-1.364139 -0.0779,-2.349013 0.311036,-3.590974 -1.06276,-0.889967 -1.503585,-2.234156 -1.470634,-3.701359 -1.400674,-0.338506 -2.238504,-2.105444 -2.983075,-3.383464 -1.597728,-0.331233 -2.899178,-1.076774 -4.226286,-2.637288 -1.798673,-0.148596 -2.729974,-0.44943 -4.71638,-1.349833 -1.449682,0.491865 -2.305982,0.50423 -4.3196,0.127539 -0.988897,0.950691 -1.982567,1.317223 -3.452966,1.506154 -0.594817,1.342331 -1.045832,1.78667 -2.116477,2.786012 z"
         style="fill:#2ead36;fill-opacity:1;stroke:#000000;stroke-width:0.38301328;stroke-miterlimit:4;stroke-dasharray:none;stroke-opacity:1" />
      <path
         inkscape:connector-curvature="0"
         id="path4527"
         d="M 74.941116,83.823769 97.915497,94.066981"
         style="fill:none;stroke:#000000;stroke-width:0.10133892px;stroke-linecap:butt;stroke-linejoin:miter;stroke-opacity:1" />
      <path
         inkscape:connector-curvature="0"
         id="path4529"
         d="m 82.579355,87.191911 -6.47864,3.92419 v 0 0 0"
         style="fill:none;stroke:#000000;stroke-width:0.10133892px;stroke-linecap:butt;stroke-linejoin:miter;stroke-opacity:1" />
      <path
         inkscape:connector-curvature="0"
         id="path4531"
         d="M 82.579355,87.191911 80.510559,79.531602"
         style="fill:none;stroke:#000000;stroke-width:0.10133892px;stroke-linecap:butt;stroke-linejoin:miter;stroke-opacity:1" />
      <path
         inkscape:connector-curvature="0"
         id="path4535"
         d="M 83.310075,97.136852 90.25037,90.612061 89.546538,80.753896"
         style="fill:none;stroke:#000000;stroke-width:0.10133892px;stroke-linecap:butt;stroke-linejoin:miter;stroke-opacity:1" />
      <path
         inkscape:connector-curvature="0"
         id="path4537"
         d="m 96.755899,86.774648 -1.302115,6.157375 -3.10773,5.427124"
         style="fill:none;stroke:#000000;stroke-width:0.10133892px;stroke-linecap:butt;stroke-linejoin:miter;stroke-opacity:1" />
      <path
         inkscape:connector-curvature="0"
         id="path4539"
         d="m 92.853884,91.849713 0.91894,-8.458529"
         style="fill:none;stroke:#000000;stroke-width:0.10133892px;stroke-linecap:butt;stroke-linejoin:miter;stroke-opacity:1" />
      <path
         inkscape:connector-curvature="0"
         id="path4541"
         d="m 92.853884,91.849713 -4.82743,6.636973"
         style="fill:none;stroke:#000000;stroke-width:0.10133892px;stroke-linecap:butt;stroke-linejoin:miter;stroke-opacity:1" />
      <path
         inkscape:connector-curvature="0"
         id="path4543"
         d="m 79.083789,94.499565 7.011019,-5.663411 -1.26465,-9.432091"
         style="fill:none;stroke:#000000;stroke-width:0.10133892px;stroke-linecap:butt;stroke-linejoin:miter;stroke-opacity:1" />
      <path
         inkscape:connector-curvature="0"
         id="path4545"
         d="m 77.057592,81.037757 1.899022,4.462077 -4.326534,1.914908"
         style="fill:none;stroke:#000000;stroke-width:0.10133892px;stroke-linecap:butt;stroke-linejoin:miter;stroke-opacity:1" />
    </g>
    <path
       style="fill:none;stroke:#000000;stroke-width:0.38301328;stroke-linecap:butt;stroke-linejoin:miter;stroke-miterlimit:4;stroke-dasharray:none;stroke-opacity:1"
       d="M 100.76423,83.961573 C 96.001984,99.072516 99.451986,107.63061 99.451986,107.63061"
       id="path4626"
       inkscape:connector-curvature="0"
       sodipodi:nodetypes="cc" />
    <g
       id="g4738"
       transform="matrix(0.567,0,0,0.567,36.045047,33.165146)">
      <path
         sodipodi:nodetypes="ccccccccccccccccc"
         inkscape:connector-curvature="0"
         id="path4524-7"
         d="m 137.11756,79.344834 c -0.063,1.23574 -0.18143,1.66496 0.31104,3.59098 -1.06818,1.12298 -1.3175,1.65157 -1.47063,3.70136 -1.53132,0.8195 -2.14539,1.52587 -2.98308,3.38346 -1.95126,0.66306 -2.76878,1.18038 -4.22629,2.63729 -2.12581,-0.0514 -3.01959,0.34796 -4.71638,1.34983 -1.70358,-0.41709 -2.79766,-0.47717 -4.3196,-0.12754 -1.09611,-0.83946 -2.01749,-1.49944 -3.45296,-1.50615 -0.74144,-1.3154 -1.21747,-1.82545 -2.11648,-2.78601 -0.08,-1.36414 0.0779,-2.34902 -0.31104,-3.59098 1.06276,-0.88996 1.50359,-2.23415 1.47064,-3.70136 1.40067,-0.3385 2.2385,-2.10544 2.98307,-3.38346 1.59773,-0.33123 2.89918,-1.07677 4.22629,-2.63729 1.79867,-0.14859 2.72997,-0.44943 4.71638,-1.34983 1.44968,0.49186 2.30598,0.50423 4.3196,0.12754 0.9889,0.95069 1.98257,1.31722 3.45297,1.50615 0.59481,1.34233 1.04583,1.78667 2.11647,2.78601 z"
         style="fill:#2ead36;fill-opacity:1;stroke:#000000;stroke-width:0.38301331;stroke-miterlimit:4;stroke-dasharray:none;stroke-opacity:1" />
      <path
         inkscape:connector-curvature="0"
         id="path4527-0"
         d="m 137.11756,79.344834 -22.97438,10.24322"
         style="fill:none;stroke:#000000;stroke-width:0.10133892px;stroke-linecap:butt;stroke-linejoin:miter;stroke-opacity:1" />
      <path
         inkscape:connector-curvature="0"
         id="path4529-9"
         d="m 129.47932,82.712984 6.47864,3.92419 v 0 0 0"
         style="fill:none;stroke:#000000;stroke-width:0.10133892px;stroke-linecap:butt;stroke-linejoin:miter;stroke-opacity:1" />
      <path
         inkscape:connector-curvature="0"
         id="path4531-3"
         d="m 129.47932,82.712984 2.0688,-7.66031"
         style="fill:none;stroke:#000000;stroke-width:0.10133892px;stroke-linecap:butt;stroke-linejoin:miter;stroke-opacity:1" />
      <path
         inkscape:connector-curvature="0"
         id="path4535-6"
         d="m 128.7486,92.657924 -6.94029,-6.52479 0.70383,-9.85817"
         style="fill:none;stroke:#000000;stroke-width:0.10133892px;stroke-linecap:butt;stroke-linejoin:miter;stroke-opacity:1" />
      <path
         inkscape:connector-curvature="0"
         id="path4537-0"
         d="m 115.30278,82.295714 1.30211,6.15738 3.10773,5.42712"
         style="fill:none;stroke:#000000;stroke-width:0.10133892px;stroke-linecap:butt;stroke-linejoin:miter;stroke-opacity:1" />
      <path
         inkscape:connector-curvature="0"
         id="path4539-6"
         d="m 119.20479,87.370784 -0.91894,-8.45853"
         style="fill:none;stroke:#000000;stroke-width:0.10133892px;stroke-linecap:butt;stroke-linejoin:miter;stroke-opacity:1" />
      <path
         inkscape:connector-curvature="0"
         id="path4541-2"
         d="m 119.20479,87.370784 4.82743,6.63697"
         style="fill:none;stroke:#000000;stroke-width:0.10133892px;stroke-linecap:butt;stroke-linejoin:miter;stroke-opacity:1" />
      <path
         inkscape:connector-curvature="0"
         id="path4543-6"
         d="m 132.97489,90.020634 -7.01102,-5.66341 1.26465,-9.43209"
         style="fill:none;stroke:#000000;stroke-width:0.10133892px;stroke-linecap:butt;stroke-linejoin:miter;stroke-opacity:1" />
      <path
         inkscape:connector-curvature="0"
         id="path4545-1"
         d="m 135.00109,76.558824 -1.89902,4.46208 4.32653,1.91491"
         style="fill:none;stroke:#000000;stroke-width:0.10133892px;stroke-linecap:butt;stroke-linejoin:miter;stroke-opacity:1" />
    </g>
    <text
       xml:space="preserve"
       style="font-style:normal;font-variant:normal;font-weight:bold;font-stretch:normal;font-size:10.58333333px;line-height:1.25;font-family:'Liberation Mono';-inkscape-font-specification:'Liberation Mono, Bold';letter-spacing:0px;word-spacing:0px;fill:#131313;fill-opacity:1;stroke:none;stroke-width:0.6;stroke-opacity:1;stroke-miterlimit:4;stroke-dasharray:none;text-anchor:start;text-align:start;writing-mode:lr;font-variant-ligatures:normal;font-variant-caps:normal;font-variant-numeric:normal;font-feature-settings:normal;"
       x="102.23373"
       y="97.01091"
       id="text4760"><tspan
         sodipodi:role="line"
         id="tspan4758"
         x="102.23373"
         y="97.01091"
         style="font-style:normal;font-variant:normal;font-weight:bold;font-stretch:normal;font-family:'Liberation Mono';-inkscape-font-specification:'Liberation Mono, Bold';stroke-width:0.6;stroke:none;stroke-opacity:1;stroke-miterlimit:4;stroke-dasharray:none;fill:#131313;fill-opacity:1;font-size:10.58333333px;text-anchor:start;text-align:start;writing-mode:lr;font-variant-ligatures:normal;font-variant-caps:normal;font-variant-numeric:normal;font-feature-settings:normal;">S</tspan></text>
    <text
       xml:space="preserve"
       style="font-style:normal;font-variant:normal;font-weight:bold;font-stretch:normal;font-size:10.58333333px;line-height:1.25;font-family:'Liberation Mono';-inkscape-font-specification:'Liberation Mono, Bold';letter-spacing:0px;word-spacing:0px;fill:#131313;fill-opacity:1;stroke:none;stroke-width:0.6;stroke-opacity:1;stroke-miterlimit:4;stroke-dasharray:none;text-anchor:start;text-align:start;writing-mode:lr;font-variant-ligatures:normal;font-variant-caps:normal;font-variant-numeric:normal;font-feature-settings:normal;"
       x="89.653374"
       y="106.38047"
       id="text4760-0"><tspan
         sodipodi:role="line"
         id="tspan4758-4"
         x="89.653374"
         y="106.38047"
         style="font-style:normal;font-variant:normal;font-weight:bold;font-stretch:normal;font-family:'Liberation Mono';-inkscape-font-specification:'Liberation Mono, Bold';stroke-width:0.6;stroke:none;stroke-opacity:1;stroke-miterlimit:4;stroke-dasharray:none;fill:#131313;fill-opacity:1;font-size:10.58333333px;text-anchor:start;text-align:start;writing-mode:lr;font-variant-ligatures:normal;font-variant-caps:normal;font-variant-numeric:normal;font-feature-settings:normal;">S</tspan></text>
    <text
       xml:space="preserve"
       style="font-style:normal;font-variant:normal;font-weight:bold;font-stretch:normal;font-size:10.58333333px;line-height:1.25;font-family:'Liberation Mono';-inkscape-font-specification:'Liberation Mono, Bold';letter-spacing:0px;word-spacing:0px;fill:#131313;fill-opacity:1;stroke:none;stroke-width:0.6;stroke-opacity:1;stroke-miterlimit:4;stroke-dasharray:none;text-anchor:start;text-align:start;writing-mode:lr;font-variant-ligatures:normal;font-variant-caps:normal;font-variant-numeric:normal;font-feature-settings:normal;"
       x="101.63945"
       y="106.27195"
       id="text4760-8"><tspan
         sodipodi:role="line"
         id="tspan4758-2"
         x="101.63945"
         y="106.27195"
         style="font-style:normal;font-variant:normal;font-weight:bold;font-stretch:normal;font-family:'Liberation Mono';-inkscape-font-specification:'Liberation Mono, Bold';stroke-width:0.6;stroke:none;stroke-opacity:1;stroke-miterlimit:4;stroke-dasharray:none;fill:#131313;fill-opacity:1;font-size:10.58333333px;text-anchor:start;text-align:start;writing-mode:lr;font-variant-ligatures:normal;font-variant-caps:normal;font-variant-numeric:normal;font-feature-settings:normal;">F</tspan></text>
  </g>
</svg>
